{"title":"Tsar - 2009","uid":6398215,"size":1469616168,"categoryP":"video","categoryS":"movies","magnet":"?xt=urn:btih:6c0e89fef8089b000800948ccabf0543c7f1a459&amp;dn=Tsar+-+2009&amp;tr=udp%3A%2F%2Ftracker.openbittorrent.com%3A80&amp;tr=udp%3A%2F%2Fopen.demonii.com%3A1337&amp;tr=udp%3A%2F%2Ftracker.coppersurfer.tk%3A6969&amp;tr=udp%3A%2F%2Fexodus.desync.com%3A6969","seeders":1,"leechers":0,"uploader":"russiacat","files":-1,"time":1305584621,"description":"Title: Tsar\nAlternative Title: Le Tsar\n\nDirectors : ..... Pavel Lungin\n\nCast:\nPyotr Mamonov ... Ivan The Terrible\nOleg Yankovskiy ... Metropolitanate Philipp\nRamilya Iskander ... Mariya Temryukovna\nAnastasiya Dontsova ... Masha\nAleksandr Domogarov ... Aleksei Basmanov\nAleksandr Ilin ... Fedka Basmanov\nVille Haapasalo ... Heinrich Staden (as Ville Khaapasalo)\nAleksei Frandetti ... Kai-Bulat\nIvan Okhlobystin ... Vassian\nYuriy Kuznetsov ... Malyuta Skuratov\nAleksey Makarov ... General Kolychev\n\nGenre: Drama | History\nRuntime: 118 Mins.\nCountry: Russia\nLanguage: Russian\nSubtitles: English (.srt)\n\nPlot Summary :\n\nIn 16th-century Russia in the grip of chaos, Ivan the Terrible strongly believes he is vested with a holy mission. Believing he can understand and interpret the signs, he sees the Last Judgment approaching. He establishes absolute power, cruelly destroying anyone who gets in his way. During this reign of terror, Philip, the superior of the monastery on the Solovetsky Islands, a great scholar and Ivan's close friend, dares to oppose the sovereign's mystical tyranny. What follows is a clash between two completely opposite visions of the world, smashing morality and justice, God and men. A grand-scale film with excellent leading roles by Mamonov and Yankovsky. An allegory of Stalinist Russia.\n\n\nTechnical Info ..\n\nGeneral \nFormat : AVI \nFormat/Info : Audio Video Interleave \nFile size : 1.37 GiB \nDuration : 1h 58mn \nOverall bit rate : 1 653 Kbps \nMovie name : Tzar (2009) \nDirector : ELEKTRI4KA \nWriting application : VirtualDubMod 1.5.10.2 (build 2540/release) \nCopyright : http://uniongang.ru/ \n\nVideo \nID : 0 \nFormat : MPEG-4 Visual \nFormat profile : Advanced Simple@L5 \nFormat settings, BVOP : Yes \nFormat settings, QPel : No \nFormat settings, GMC : No warppoints \nFormat settings, Matrix : Custom \nCodec ID : XVID \nCodec ID/Hint : XviD \nDuration : 1h 58mn \nBit rate : 1 195 Kbps \nWidth : 720 pixels \nHeight : 304 pixels \nDisplay aspect ratio : 2.35:1 \nFrame rate : 25.000 fps \nResolution : 8 bits \nColorimetry : 4:2:0 \nScan type : Progressive \nBits/(Pixel*Frame) : 0.218 \nStream size : 1 013 MiB (72%) \nWriting library : XviD 1.2.0.dev47 (UTC 2006-11-01) \n\nAudio \nID : 1 \nFormat : AC-3 \nFormat/Info : Audio Coding 3 \nCodec ID : 2000 \nDuration : 1h 58mn \nBit rate mode : Constant \nBit rate : 448 Kbps \nChannel(s) : 6 channels \nChannel positions : Front: L C R, Surround: L R, LFE \nSampling rate : 48.0 KHz \nStream size : 380 MiB (27%) \nAlignment : Split accross interleaves \nInterleave, duration : 40 ms (1.00 video frame) \nInterleave, preload duration : 500 ms \n\nTrailer\n\nIMDB: http://www.imdb.com/title/tt1424431/\n","torrent":{"xt":"urn:btih:6c0e89fef8089b000800948ccabf0543c7f1a459","amp;dn":"Tsar+-+2009","amp;tr":["udp%3A%2F%2Ftracker.openbittorrent.com%3A80","udp%3A%2F%2Fopen.demonii.com%3A1337","udp%3A%2F%2Ftracker.coppersurfer.tk%3A6969","udp%3A%2F%2Fexodus.desync.com%3A6969"],"infoHash":"6c0e89fef8089b000800948ccabf0543c7f1a459","infoHashBuffer":{"type":"Buffer","data":[108,14,137,254,248,8,155,0,8,0,148,140,202,191,5,67,199,241,164,89]},"announce":[],"urlList":[]}}